<svg xmlns="http://www.w3.org/2000/svg" viewBox="0 0 87.75 116.75" role="img" aria-label="The Furnist 365">
  <path fill="#F3E7D3" fill-rule="evenodd" d="M62.5 1 L63.5 1.5 L63.25 62 L66.75 66.5 L72.75 71.75 L74.5 74.25 L80.75 79.75 L83 82.5 L86 84.75 L87 86.5 L87 115.75 L82 115.75 L81.75 88 L78.25 84.5 L77.25 84.25 L76 82.25 L68.25 75.25 L64.5 71 L63.25 71.25 L63.25 115.75 L58.25 115.75 L58.25 13.25 L57.25 13.25 L40.25 30.5 L40.25 31.75 L42 32.75 L42.5 34 L49.5 40.25 L50 42 L50 116 L45 115.75 L45 43.5 L38.5 36.5 L36.25 35 L34.5 32.5 L31.25 30 L30.75 28.75 L29.5 29.25 L29.5 116 L24.75 116 L24.5 115.25 L24.75 57.5 L24 56.75 L23 57 L6 74.25 L6 116 L1 116 L1 71.75 L24.5 48.25 L24.5 16.75 L25.75 16.75 L34.75 26.25 L36.75 27.25 L38 25.25 L51.75 11.5 L53.75 10.25 Z"/>
</svg>
